<svg xmlns="http://www.w3.org/2000/svg" xmlns:xlink="http://www.w3.org/1999/xlink" fill="none" version="1.1" width="20" height="20" viewBox="0 0 20 20"><defs><clipPath id="master_svg0_550_5274"><rect x="0" y="0" width="20" height="20" rx="0"/></clipPath></defs><g clip-path="url(#master_svg0_550_5274)"><g><path d="M3.3333282470703125,2.08300989866L16.666628247070314,2.08300989866C17.35662824707031,2.08300989866,17.916628247070314,2.6421768125,17.916628247070314,3.3313478125L17.916628247070314,13.9063078125C17.916628247070314,14.5963078125,17.35872824707031,14.9997078125,16.666628247070314,14.9997078125L12.732928247070312,14.9997078125L10.594158247070313,17.2938078125C10.267818247070313,17.6214078125,9.737348247070312,17.6212078125,9.411248247070311,17.2934078125L7.2620782470703125,14.9997078125L3.3333282470703125,14.9997078125C2.6433282470703126,14.9997078125,2.0833285450933126,14.5951078125,2.0833285450933126,13.9063078125L2.0833285450933126,3.3313478125C2.0828663110703123,2.6410648125,2.6430512470703125,2.0816261725,3.3333282470703125,2.08300989866ZM6.666658247070313,12.9163078125L6.666658247070313,6.2496778125L5.8333282470703125,6.2496778125L5.8333282470703125,12.9163078125L6.666658247070313,12.9163078125ZM13.333328247070312,12.0830078125L11.666658247070313,12.0830078125L11.666658247070313,12.9163078125L14.166628247070312,12.9163078125L14.166628247070312,4.1663478125L8.333328247070312,4.1663478125L8.333328247070312,4.9996778125L13.333328247070312,4.9996778125L13.333328247070312,12.0830078125ZM8.749998247070312,9.9996778125L8.749998247070312,7.4996778125L11.249998247070312,7.4996778125L11.249998247070312,9.9996778125L8.749998247070312,9.9996778125ZM7.916658247070313,6.6663378125L7.916658247070313,10.8330078125L12.083328247070312,10.8330078125L12.083328247070312,6.6663478125L7.916658247070313,6.6663378125ZM6.224998247070313,3.7600978124999997L5.635408247070313,4.349257812499999L7.108748247070313,5.8225878125L7.697908247070313,5.2334278125L6.224578247070313,3.7600878125L6.224998247070313,3.7600978124999997Z" fill="#35CA95" fill-opacity="1" style="mix-blend-mode:passthrough"/></g></g></svg>