<svg xmlns="http://www.w3.org/2000/svg" xmlns:xlink="http://www.w3.org/1999/xlink" fill="none" version="1.1" width="37" height="37" viewBox="0 0 37 37"><defs><clipPath id="master_svg0_550_4918"><rect x="0" y="0" width="37" height="37" rx="0"/></clipPath></defs><g style="opacity:0.5;" clip-path="url(#master_svg0_550_4918)"><g><path d="M30.756243896484374,0L10.406243896484375,0C7.631243896484375,0,5.549993896484375,2.08125,5.549993896484375,4.85625L5.549993896484375,5.55C3.237493896484375,6.0125,1.618744034320375,8.09375,1.618744034320375,10.6375C1.618744034320375,12.2562,2.312493896484375,13.6437,3.468743896484375,14.5688C2.312493896484375,15.4937,1.618743896484375,16.8813,1.618743896484375,18.5C1.618743896484375,20.1187,2.312493896484375,21.5063,3.468743896484375,22.4312C2.312493896484375,23.3562,1.618743896484375,24.7437,1.618743896484375,26.3625C1.618743896484375,28.9062,3.237493896484375,30.7562,5.549993896484375,31.45L5.549993896484375,32.1437C5.549993896484375,34.6875,7.631243896484375,37,10.406243896484375,37L30.756243896484374,37C33.29994389648438,37,35.61244389648437,34.9188,35.61244389648437,32.1437L35.61244389648437,4.85625C35.38124389648438,2.08125,33.29994389648438,0,30.756243896484374,0ZM5.549993896484375,28.9062C4.624993896484375,28.4438,3.931243896484375,27.5187,3.931243896484375,26.3625C3.931243896484375,25.2062,4.624993896484375,24.2812,5.549993896484375,23.8187L5.549993896484375,28.9062ZM5.549993896484375,21.0438C4.624993896484375,20.5812,3.931243896484375,19.6562,3.931243896484375,18.5C3.931243896484375,17.3438,4.624993896484375,16.4187,5.549993896484375,15.9563L5.549993896484375,21.0438ZM5.549993896484375,12.95C4.624993896484375,12.7188,3.931243896484375,11.5625,3.931243896484375,10.6375C3.931243896484375,9.48125,4.624993896484375,8.55625,5.549993896484375,8.09375L5.549993896484375,12.95ZM29.368743896484375,28.675L12.718743896484375,28.675L12.718743896484375,26.3625L29.368743896484375,26.3625L29.368743896484375,28.675ZM29.368743896484375,20.35L12.718743896484375,20.35L12.718743896484375,18.0375L29.368743896484375,18.0375L29.368743896484375,20.35ZM29.368743896484375,10.6375L12.718743896484375,10.6375L12.718743896484375,8.325L29.368743896484375,8.325L29.368743896484375,10.6375Z" fill="#FFFFFF" fill-opacity="1" style="mix-blend-mode:passthrough"/></g></g></svg>