<svg xmlns="http://www.w3.org/2000/svg" xmlns:xlink="http://www.w3.org/1999/xlink" fill="none" version="1.1" width="14" height="14" viewBox="0 0 14 14"><defs><clipPath id="master_svg0_1016_6410"><rect x="0" y="0" width="14" height="14" rx="0"/></clipPath></defs><g clip-path="url(#master_svg0_1016_6410)"><g><path d="M11.8615,2.1901167041015626C9.81575,1.9586867041015625,8.276620000000001,1.4052467041015626,7.287,0.5446837041015625L7.02669,0.3184967041015625L6.74581,0.5188717041015625C5.19487,1.6261867041015625,3.661,2.1874967041015623,2.1875,2.1874967041015623L1.75,2.1874967041015623L1.75,8.312496704101562C1.75,10.190246704101563,3.4055,11.893396704101562,6.81144,13.519596704101563L6.99038,13.604896704101563L7.17281,13.526596704101562C10.542,12.079396704101562,12.25,10.325396704101562,12.25,8.312496704101562L12.25,2.2343067041015625L11.8615,2.1901167041015626ZM11.375,8.312496704101562C11.375,9.909366704101563,9.90675,11.366196704101563,7.00919,12.643696704101563C4.09981,11.224896704101562,2.625,9.768056704101562,2.625,8.312496704101562L2.625,3.0484967041015625C4.05606,2.9557467041015624,5.5177499999999995,2.4101867041015623,6.97944,1.4223067041015625C8.028559999999999,2.222056704101562,9.504249999999999,2.7553667041015624,11.375,3.0113067041015626L11.375,8.312496704101562ZM4.918810000000001,6.407616704101563C4.7587600000000005,6.226426704101563,4.4821,6.209326704101563,4.30096,6.369446704101563C4.11982,6.529556704101562,4.1028199999999995,6.8062267041015625,4.263,6.987306704101562L5.92812,8.871616704101562C6.1005,9.066306704101562,6.34069,9.166496704101563,6.58306,9.166496704101563C6.84622,9.166256704101562,7.09547,9.048296704101562,7.2625,8.844936704101562L9.96406,5.526496704101563C10.11665,5.339116704101563,10.08844,5.063516704101563,9.90106,4.910936704101562C9.71368,4.758346704101562,9.438089999999999,4.786556704101563,9.285499999999999,4.973936704101562L6.58394,8.291936704101563L4.918810000000001,6.407616704101563Z" fill="#98A7A2" fill-opacity="1" style="mix-blend-mode:passthrough"/></g></g></svg>