<svg xmlns="http://www.w3.org/2000/svg" xmlns:xlink="http://www.w3.org/1999/xlink" fill="none" version="1.1" width="50" height="50" viewBox="0 0 50 50"><defs><clipPath id="master_svg0_550_4928"><rect x="0" y="0" width="50" height="50" rx="0"/></clipPath></defs><g clip-path="url(#master_svg0_550_4928)"><g><path d="M25,3.0849609375C14.64844,3.0849609375,6.25,11.4834009375,6.25,21.8349609375C6.25,30.8583609375,12.65625,38.4365609375,21.1719,40.1943609375L25.0781,46.9521609375L28.9844,40.1943609375C37.4219,38.3193609375,43.75,30.8193609375,43.75,21.8349609375C43.75,11.4833909375,35.351600000000005,3.08495851606,25,3.0849609375ZM26.5625,34.374060937500005L23.4375,34.374060937500005L23.4375,31.2490609375L26.5625,31.2490609375L26.5625,34.374060937500005ZM29.8047,19.1005609375L28.3984,20.5458609375C27.3047,21.7177609375,26.5625,22.6943609375,26.5625,24.9990609375L26.5625,28.1240609375L23.4375,28.1240609375L23.4375,24.2568609375C23.4375,22.5380609375,24.1406,20.8974609375,25.2734,19.7646609375L27.2266,17.7724609375C27.8125,17.2255609375,28.1641,16.4443609375,28.1641,15.5458609375C28.1641,13.8271609375,26.7578,12.4209009375,25.0391,12.4209009375C23.3203,12.4209009375,21.875,13.8661609375,21.875,15.5849609375L18.75,15.5849609375C18.75,12.1084009375,21.5625,9.2959009375,25.0391,9.2959009375C28.5156,9.2959009375,31.3281,12.1084009375,31.3281,15.5849609375C31.2891,16.9521609375,30.7031,18.2411609375,29.8047,19.1005609375Z" fill="#FFFFFF" fill-opacity="1" style="mix-blend-mode:passthrough"/></g></g></svg>