<svg xmlns="http://www.w3.org/2000/svg" xmlns:xlink="http://www.w3.org/1999/xlink" fill="none" version="1.1" width="17.391305923461914" height="17.391305923461914" viewBox="0 0 17.391305923461914 17.391305923461914"><defs><clipPath id="master_svg0_550_5995"><rect x="0" y="0" width="17.391305923461914" height="17.391305923461914" rx="0"/></clipPath></defs><g clip-path="url(#master_svg0_550_5995)"><g><path d="M10.324991640625,7.09786684375C10.220031640625,6.9929468437499995,10.108161640625,6.89836684375,9.992891640625,6.81066984375L9.992681640625,6.81086184375C9.874031640625,6.69674754375,9.712921640625,6.62646484375,9.535301640625,6.62646484375C9.170751640625,6.62646484375,8.875241640625,6.92198584375,8.875241640625,7.28652184375C8.875241640625,7.44782084375,8.933191640625001,7.59556484375,9.029311640625,7.71021484375L9.029291640625,7.71021484375C9.029311640625,7.7102348437499995,9.029351640625,7.71026484375,9.029381640625001,7.71028484375C9.075561640625,7.76536484375,9.130501640624999,7.81284484375,9.192181640625,7.85043484375C9.254411640625001,7.90175484375,9.315501640625001,7.95229484375,9.372631640625,8.00942484375L9.427041640625,8.06385484375C10.111141640625,8.74709484375,9.906911640625,9.92424484375,9.222821640625,10.60835484375L6.303651640625,13.52665484375C5.619571640625,14.20989484375,4.507421640625,14.20989484375,3.823311640625,13.52665484375L3.768461640625,13.47177484375C3.084341640625,12.78769484375,3.084341640625,11.674724843749999,3.768461640625,10.99230484375L5.058131640625,9.70307484375C5.2236016406250005,9.57173484375,5.329821640625,9.369024843750001,5.329821640625,9.14138484375C5.329821640625,8.74544484375,5.008861640625,8.42448484375,4.612921640625,8.42448484375C4.463501640625,8.42448484375,4.324821640625,8.47022484375,4.209971640625,8.54841484375C4.209611640625,8.54765484375,4.209221640625,8.54692484375,4.208841640625,8.54613484375L4.195091640625,8.55899484375C4.1443316406249995,8.59549484375,4.098431640625,8.63830484375,4.0587916406249995,8.68654484375L2.718549640625,9.94065484375C1.458725640625,11.20134484375,1.458725640625,13.263224843749999,2.718549640625,14.52215484375L2.772965640625,14.57655484375C4.032791640625,15.83551484375,6.093771640625,15.83551484375,7.353601640625,14.57655484375L10.271901640625,11.65738484375C11.529981640625,10.39763484375,11.636661640625,8.41036484375,10.378591640625,7.15141384375L10.324991640625,7.09786684375Z" fill="#FFFFFF" fill-opacity="1" style="mix-blend-mode:passthrough"/></g><g><path d="M14.531656875,2.81569025L14.477236875,2.76127425C13.217426875000001,1.50145025,11.156446875,1.50145025,9.896616875,2.76127425L6.978320875,5.68042625C5.718496875,6.94024625,5.649116875,8.759506250000001,6.908940875,10.02014625L6.962487875,10.07287625C7.019696875,10.13007625,7.079086875,10.18399625,7.139706875,10.23572625C7.183586875,10.28473625,7.235136875,10.32668625,7.292436875,10.35986625C7.292876875,10.36021625,7.293326875,10.36057625,7.293756875,10.36092625L7.293946875,10.36074625C7.385276875,10.41326625,7.491106875,10.44347625,7.604036875,10.44347625C7.948186875,10.44347625,8.227156875,10.16446625,8.227156875,9.82035625C8.227156875,9.72321625,8.204916875,9.631276249999999,8.165256875,9.54931625C8.082876875,9.36434625,7.928666875,9.25174625,7.822006875,9.14506625L7.768446875,9.092376250000001C7.084366875,8.40829625,7.344136875,7.41444625,8.028216875,6.73037625L10.948236875,3.81205625C11.630626875,3.12794625,12.743156875,3.12794625,13.427266875,3.81205625L13.481716875,3.86560625C14.165806875,4.5497362500000005,14.165806875,5.66313625,13.481716875,6.34637625L12.196276874999999,7.63268625C12.021406875,7.76224625,11.908006875,7.97007625,11.908006875,8.20440625C11.908006875,8.597126249999999,12.226376875,8.91551625,12.619116875,8.91551625C12.755806875000001,8.91551625,12.883446875,8.876866249999999,12.991826875000001,8.81002625C12.992636874999999,8.81141625,12.993406875,8.81270625,12.994226874999999,8.81410625L13.014156875000001,8.79570625C13.075576875,8.75458625,13.130126875,8.70409625,13.175996875,8.646386249999999L14.530726875,7.39632625C15.791476875,6.13651625,15.791476875,4.0754962500000005,14.531656875,2.81569025Z" fill="#FFFFFF" fill-opacity="1" style="mix-blend-mode:passthrough"/></g></g></svg>