<svg xmlns="http://www.w3.org/2000/svg" xmlns:xlink="http://www.w3.org/1999/xlink" fill="none" version="1.1" width="20" height="20" viewBox="0 0 20 20"><defs><clipPath id="master_svg0_882_5867"><rect x="0" y="0" width="20" height="20" rx="0"/></clipPath></defs><g clip-path="url(#master_svg0_882_5867)"><g><path d="M18.7556171875,15.380608203125C16.8244171875,12.371278203125,13.1431171875,6.209398203125,11.2213171875,3.2144032031250003C10.8025271875,2.668153103125,9.8175271875,2.355028203125,9.2118971875,3.2144032031250003L1.2012731875,15.700608203125C0.7450231875,16.362508203125,0.7518981875,17.260608203125003,2.1656471875000003,17.310608203125L18.2719171875,17.310608203125C19.2175171875,17.256308203125002,19.2175171875,16.090008203125002,18.7556171875,15.380608203125ZM10.2118971875,14.838108203125C9.7013671875,14.838608203125,9.2872471875,14.424908203125,9.2872471875,13.914408203125C9.2872471875,13.403908203125,9.7013771875,12.990108203125,10.2118971875,12.990608203125C10.7217171875,12.991108203125,11.1347171875,13.404608203125,11.1347171875,13.914408203125C11.1347171875,14.424208203125,10.7217171875,14.837608203125,10.2118971875,14.838108203125ZM10.9043971875,11.605028203125C10.9131471875,11.830028203125,10.6906471875,12.067528203125,10.4425271875,12.067528203125L9.9806471875,12.067528203125C9.7331471875,12.067528203125,9.5275171875,11.830028203125,9.5193971875,11.605028203125L9.0568971875,7.217528203125C9.0568971875,6.835648203125,9.3675271875,6.525028203125,9.7500271875,6.525028203125L10.6737771875,6.525028203125C11.0563171875,6.525028203125,11.3663171875,6.835648203125,11.3663171875,7.218148203125L10.9043971875,11.605648203125L10.9043971875,11.605028203125Z" fill="#FA5151" fill-opacity="1" style="mix-blend-mode:passthrough"/></g></g></svg>