<svg xmlns="http://www.w3.org/2000/svg" xmlns:xlink="http://www.w3.org/1999/xlink" fill="none" version="1.1" width="16" height="15.044995307922363" viewBox="0 0 16 15.044995307922363"><defs><clipPath id="master_svg0_882_5934"><rect x="0" y="0" width="16" height="15.044995307922363" rx="0"/></clipPath></defs><g clip-path="url(#master_svg0_882_5934)"><g><path d="M15.28991171875,2.11981828125L0.69482871875,2.11981828125C0.31081571875,2.11981828125,-0.00048828125,2.43112828125,-0.00048828125,2.81513828125C-0.00048828125,3.19914828125,0.31081571875,3.51045828125,0.69482871875,3.51045828125L2.30642171875,3.51045828125L2.30642171875,12.05028828125C2.30772171875,13.70258828125,3.64602171875,15.04218828125,5.29831171875,15.04498828125L10.68601171875,15.04498828125C12.33841171875,15.04238828125,13.67701171875,13.70278828125,13.67831171875,12.05028828125L13.67831171875,3.50857828125L15.28991171875,3.50857828125C15.68061171875,3.51873828125,16.00281171875,3.20478828125,16.00281171875,2.81395828125C16.00281171875,2.42312828125,15.68061171875,2.10918828125,15.28991171875,2.11934828125L15.28991171875,2.11981828125ZM7.11347171875,10.64698828125C7.11347171875,11.03068828125,6.80237171875,11.34178828125,6.41862171875,11.34178828125C6.03487171875,11.34178828125,5.72377171875,11.03068828125,5.72377171875,10.64698828125L5.72377171875,6.27949828125C5.72377171875,5.89574828125,6.03487171875,5.58465828125,6.41862171875,5.58465828125C6.80237171875,5.58465828125,7.11347171875,5.89574828125,7.11347171875,6.27949828125L7.11347171875,10.64698828125ZM10.25861171875,10.64698828125C10.25861171875,11.03068828125,9.94752171875,11.34178828125,9.56377171875,11.34178828125C9.18002171875,11.34178828125,8.86892171875,11.03068828125,8.86892171875,10.64698828125L8.86892171875,6.27949828125C8.86892171875,5.89574828125,9.18002171875,5.58465828125,9.56377171875,5.58465828125C9.94752171875,5.58465828125,10.25861171875,5.89574828125,10.25861171875,6.27949828125L10.25861171875,10.64698828125ZM5.33122171875,1.39158828125L10.65301171875,1.39158828125C11.03011171875,1.38178828125,11.33071171875,1.07326828125,11.33071171875,0.69604028125C11.33071171875,0.31881228125,11.03011171875,0.01029300125,10.65301171875,0.00048828125L5.33122171875,0.00048828125C4.95412171875,0.01029312125,4.65352171875,0.31881228125,4.65352171875,0.69604028125C4.65352171875,1.07326828125,4.95412171875,1.38178828125,5.33122171875,1.39158828125Z" fill="#FA5151" fill-opacity="1" style="mix-blend-mode:passthrough"/></g></g></svg>