<svg xmlns="http://www.w3.org/2000/svg" xmlns:xlink="http://www.w3.org/1999/xlink" fill="none" version="1.1" width="20" height="20" viewBox="0 0 20 20"><defs><clipPath id="master_svg0_882_5883"><rect x="0" y="0" width="20" height="20" rx="0"/></clipPath></defs><g clip-path="url(#master_svg0_882_5883)"><g><path d="M16.109311523437498,11.97656C15.7968115234375,10.97266,15.4374115234375,10.128910000000001,14.8847115234375,8.74805C14.9707115234375,5.121090000000001,13.4628115234375,2.1875,9.990191523437499,2.1875C6.4784715234375,2.1875,5.0038615234375,5.17969,5.0976115234375,8.74805C4.5429315234375,10.13086,4.1855055234375005,10.96875,3.8730055234375,11.97656C3.2089425234375,14.1152,3.4237866434375,15,3.5878485234375,15.0195Q3.9394115234375002,15.0625,4.9569915234375,13.4102C4.9569915234375,14.3672,5.4491815234375,15.6152,6.5155815234375005,16.5156C5.9999615234375,16.6738,4.8417515234375,17.099600000000002,5.1171415234375,17.5664C5.3398015234375,17.9434,8.949181523437499,17.8066,9.990191523437499,17.689500000000002C11.0312115234375,17.8066,14.6406115234375,17.9434,14.8632115234375,17.5664C15.1386115234375,17.101599999999998,13.9785115234375,16.6738,13.4648115234375,16.5156C14.5312115234375,15.6133,15.0234115234375,14.3652,15.0234115234375,13.4102Q16.0410115234375,15.0625,16.3925115234375,15.0195C16.558511523437502,14.998,16.773411523437503,14.1133,16.109311523437498,11.97656Z" fill="#FFFFFF" fill-opacity="1" style="mix-blend-mode:passthrough"/></g></g></svg>