<svg xmlns="http://www.w3.org/2000/svg" xmlns:xlink="http://www.w3.org/1999/xlink" fill="none" version="1.1" width="20" height="20" viewBox="0 0 20 20"><defs><clipPath id="master_svg0_882_5879"><rect x="0" y="0" width="20" height="20" rx="0"/></clipPath></defs><g clip-path="url(#master_svg0_882_5879)"><g><path d="M19.15806953125,7.5449013671875L17.07366953125,7.5449013671875L13.53116953125,7.5449013671875L12.69706953125,6.0596813671875L10.40603953125,1.6551513671875L9.98886953125,1.6551513671875L7.90537953125,6.0596813671875L7.07132953125,7.5449113671875L3.52789953125,7.5449013671875L0.55126953125,7.5449013671875L0.55126953125,7.6392813671875L1.72721953125,8.4730213671875L5.02458953125,11.3920313671875L4.27638953125,18.0637513671875C4.27638953125,18.2719513671875,4.31930953125,18.2719513671875,4.73559953125,18.2719513671875L10.17554953125,14.9357513671875L15.60406953125,18.2719513671875C15.81276953125,18.2719513671875,15.81806953125,18.2719513671875,16.02646953125,18.0637513671875L14.98726953125,11.3920313671875L18.11466953125,8.7096813671875L19.36646953125,7.6960113671875C19.36646953125,7.4875813671875,19.36646953125,7.5449013671875,19.15806953125,7.5449013671875ZM5.61256953125,14.0887513671875L11.65576953125,9.1636013671875L6.02914953125,8.199321367187501L14.57326953125,8.199321367187501L9.36325953125,12.9160513671875L14.78176953125,14.0887513671875L5.61256953125,14.0887513671875Z" fill="#FFFFFF" fill-opacity="1" style="mix-blend-mode:passthrough"/></g></g></svg>