<svg xmlns="http://www.w3.org/2000/svg" xmlns:xlink="http://www.w3.org/1999/xlink" fill="none" version="1.1" width="20" height="20" viewBox="0 0 20 20"><defs><clipPath id="master_svg0_999_05030"><rect x="0" y="0" width="20" height="20" rx="0"/></clipPath></defs><g clip-path="url(#master_svg0_999_05030)"><g><path d="M10,1C11.2225,0.9999562543,12.2264,1.954401,12.2731,3.16115L12.2747,3.24713L12.2747,4.51724L16.7253,4.51724C17.9477,4.5172,18.9516,5.47164,18.9984,6.67839L19,6.76437L19,8.71839C19,9.0961,18.69,9.4023,18.3077,9.4023L17.8132,9.4023L17.8132,15.7529C17.8132,16.9605,16.847099999999998,17.9522,15.6255,17.9984L15.5385,18L4.461539999999999,18C3.23907,18,2.23517,17.0456,2.1883999999999997,15.8389L2.18681,15.7529L2.18681,9.4023L1.6923080000000001,9.4023C1.332053,9.40229,1.0320171,9.12934,1.0023736,8.77467L1,8.71839L1,6.76437C0.999999752411,5.52331,2.01843,4.51724,3.27472,4.51724L7.72527,4.51724L7.72527,3.24713C7.72527,2.0060700000000002,8.7437,1.0000000698813,10,1ZM16.4286,9.4023L3.57143,9.4023L3.57143,15.7529C3.57137,16.2152,3.93372,16.598599999999998,4.40062,16.630200000000002L4.461539999999999,16.632199999999997L6.94119,16.632199999999997C6.93918,16.6184,6.9376,16.604599999999998,6.93644,16.5908L6.93407,16.5345L6.93407,14.1897C6.93423,13.823,7.22704,13.5217,7.59787,13.5066C7.96869,13.4915,8.285599999999999,13.768,8.31631,14.1334L8.31868,14.1897L8.31868,16.5345C8.31868,16.567700000000002,8.31631,16.6009,8.31156,16.6326L11.6884,16.6326C11.6864,16.6187,11.6848,16.6047,11.6837,16.5908L11.6813,16.5345L11.6813,14.1897C11.6815,13.823,11.9743,13.5217,12.3451,13.5066C12.7159,13.4915,13.0329,13.768,13.0636,14.1334L13.0659,14.1897L13.0659,16.5345C13.0659,16.567700000000002,13.0636,16.6009,13.0588,16.6326L15.5385,16.632199999999997C16.006500000000003,16.632199999999997,16.3946,16.2743,16.4266,15.8131L16.4286,15.7529L16.4286,9.4023ZM16.7253,5.88506L3.27472,5.88506C2.78313,5.88506,2.38462,6.27874,2.38462,6.76437L2.38462,8.03448L17.6154,8.03448L17.6154,6.76437C17.6154,6.30205,17.2531,5.91865,16.7862,5.88701L16.7253,5.88506ZM10,2.36782C9.53201,2.36776,9.1439,2.7257100000000003,9.11187,3.18694L9.10989,3.24713L9.10989,4.51724L10.89011,4.51724L10.89011,3.24713C10.89011,2.7615,10.49159,2.36782,10,2.36782Z" fill="#444444" fill-opacity="1" style="mix-blend-mode:passthrough"/></g></g></svg>