<svg xmlns="http://www.w3.org/2000/svg" xmlns:xlink="http://www.w3.org/1999/xlink" fill="none" version="1.1" width="20" height="20" viewBox="0 0 20 20"><defs><clipPath id="master_svg0_882_5871"><rect x="0" y="0" width="20" height="20" rx="0"/></clipPath></defs><g clip-path="url(#master_svg0_882_5871)"><g><path d="M6.0299407421875,2.32881405859375C0.4619377421875,3.3233150585937503,-1.3940592578125,9.61406505859375,3.0348907421875,12.49343505859375C3.2777407421875,12.64953505859375,3.2777407421875,12.63223505859375,2.9134407421875,13.71923505859375L2.6012407421875,14.65013505859375L3.7229407421875,14.04883505859375L4.8446407421875,13.44753505859375L5.4401907421875,13.59213505859375C6.0645907421875,13.74823505859375,6.8625407421875,13.85803505859375,7.3944407421875,13.85803505859375L7.7124907421875,13.85803505859375L7.6025907421875,13.43593505859375C6.7295407421875,10.22121505859375,9.7476907421875,7.03536505859375,13.6735607421875,7.03536505859375L14.2055607421875,7.03536505859375L14.0957607421875,6.65376505859375C13.2341607421875,3.64131505859375,9.5973907421875,1.6928140585937501,6.0299407421875,2.32881405859375ZM5.5442407421875,5.14461505859375C6.1339907421875,5.543615058593749,6.1686907421875,6.40511505859375,5.6020407421875,6.77516505859375C4.6827407421875,7.37646505859375,3.6072907421875,6.31836505859375,4.2259407421875,5.41636505859375C4.497690742187499,5.01166505859375,5.1510907421875,4.87866505859375,5.5442407421875,5.14461505859375ZM10.2854407421875,5.14461505859375C11.2568607421875,5.79801505859375,10.5282907421875,7.30706505859375,9.4412407421875,6.89076505859375C8.6549407421875,6.59011505859375,8.5623907421875,5.50891505859375,9.2966907421875,5.12151505859375C9.5857907421875,4.96541505859375,10.0367907421875,4.97696505859375,10.2854407421875,5.14461505859375ZM12.4305607421875,7.52681505859375C9.6725407421875,8.029815058593751,7.7586907421875,10.12286505859375,7.8685907421875,12.52813505859375C8.013140742187499,15.74873505859375,11.7887607421875,17.96893505859375,15.4139607421875,16.97443505859375L15.8418607421875,16.858835058593748L16.7438607421875,17.34453505859375C17.2410607421875,17.616335058593748,17.6573607421875,17.81283505859375,17.6689607421875,17.78973505859375C17.6805607421875,17.76083505859375,17.5822607421875,17.413835058593747,17.4550607421875,17.01493505859375C17.1659607421875,16.12453505859375,17.1601607421875,16.18813505859375,17.5475607421875,15.91063505859375C21.9070607421875,12.78253505859375,18.0794607421875,6.50341505859375,12.4305607421875,7.52681505859375ZM12.3206607421875,10.12286505859375C12.5634607421875,10.28476505859375,12.6906607421875,10.68951505859375,12.5865607421875,10.98436505859375C12.3668607421875,11.61456505859375,11.4244607421875,11.66081505859375,11.1699607421875,11.05376505859375C10.8809607421875,10.35416505859375,11.6788607421875,9.70656505859375,12.3206607421875,10.12286505859375ZM16.1829607421875,10.19231505859375C16.5645607421875,10.55651505859375,16.5009607421875,11.17521505859375,16.055760742187502,11.40646505859375C15.3734607421875,11.75336505859375,14.6565607421875,11.05956505859375,15.0092607421875,10.39466505859375C15.2405607421875,9.96676505859375,15.8360607421875,9.86271505859375,16.1829607421875,10.19231505859375Z" fill="#FFFFFF" fill-opacity="1" style="mix-blend-mode:passthrough"/></g></g></svg>